<svg width="71" height="64" viewBox="0 0 71 64" fill="none" xmlns="http://www.w3.org/2000/svg">
<g clip-path="url(#clip0_2001_454)">
<path d="M40.4297 7.83667H56.406L41.1731 26.1224H57.3841" stroke="#FFF04B" stroke-width="2" stroke-linejoin="round"/>
<path d="M61.2969 1.30615H69.6958L62.0663 10.449H70.4262" stroke="#FFF04B" stroke-width="2" stroke-linejoin="round"/>
<path d="M37.8215 30.0408H10.4336V62.6938H37.8215V30.0408Z" fill="#FFF04B"/>
<path d="M18.2592 32.6531H6.52148V50.9388H18.2592V32.6531Z" fill="white"/>
<path d="M32.6055 39.1837V23.5103" stroke="#34A6F7" stroke-width="2" stroke-linejoin="round"/>
<path d="M5.2168 23.5103V62.6939" stroke="#34A6F7" stroke-width="2" stroke-linejoin="round"/>
<path d="M3.54789 11.7551H33.4138C35.1353 11.7551 36.5308 13.1527 36.5308 14.8768V23.5102H1.30469V14.0017C1.30469 12.7608 2.30891 11.7551 3.54789 11.7551Z" stroke="#34A6F7" stroke-width="2" stroke-linejoin="round"/>
<path d="M7.82617 11.7551V23.5102" stroke="#34A6F7" stroke-width="2" stroke-linejoin="round"/>
<path d="M15.6504 11.7551V23.5102" stroke="#34A6F7" stroke-width="2" stroke-linejoin="round"/>
<path d="M23.4766 11.7551V23.5102" stroke="#34A6F7" stroke-width="2" stroke-linejoin="round"/>
<path d="M29.9961 11.7551V23.5102" stroke="#34A6F7" stroke-width="2" stroke-linejoin="round"/>
<path d="M41.7343 61.3877C47.4966 61.3877 52.1678 56.7095 52.1678 50.9387C52.1678 45.1679 47.4966 40.4897 41.7343 40.4897C35.972 40.4897 31.3008 45.1679 31.3008 50.9387C31.3008 56.7095 35.972 61.3877 41.7343 61.3877Z" stroke="#34A6F7" stroke-width="2" stroke-linejoin="round"/>
<path d="M2.60938 62.6938H63.9062" stroke="#34A6F7" stroke-width="2" stroke-linejoin="round"/>
<path d="M33.7012 44.5127L49.9253 57.3127" stroke="#34A6F7" stroke-width="2" stroke-linejoin="round"/>
<path d="M5.2168 35.2654H18.2587V54.8572H5.2168" stroke="#34A6F7" stroke-width="2" stroke-linejoin="round"/>
</g>
<defs>
<clipPath id="clip0_2001_454">
<rect width="71" height="64" fill="white"/>
</clipPath>
</defs>
</svg>
